/* XPM */
static char *_07d7be910f3423cce8a39d33e5df1d1zSf2p2qItDKSLU46[] = {
/* columns rows colors chars-per-pixel */
"64 80 5 1 ",
"  c None",
". c #755338",
"X c #296640",
"o c #509B66",
"O c #69B57F",
/* pixels */
"oooooooooooooooooooooooooooooooooooooooooooooooooooooooooooooooo",
"oooooooooooooooooooooooooooooooooooooooooooooooooooooooooooooooo",
"oooooooooooooooooooooooooooooooooooooooooooooooooooooooooooooooo",
"ooooooooooooooooooooooooooOOoooooooooooooooooooooooooooooooooooo",
"ooooooooooooooooooooOOOooOOXXooooooooooooooooooooooooOOooooooooo",
"ooooOOoooooooooooooooOOOoOXXoooooooooooooooooooooooooOOOooOOoooo",
"ooooOOOooOOoooooooooXXOOoooOOOooooooooooooooooooooooXXOOoOOOoooo",
"oooXXOOoOOOooooooooooXXOooOOOooooooooooooooooooooooooXXOoOOXXooo",
"ooooXXOoOOXXooooooooooooooOOXXooooOOOooooooooooooooooooooOXXoooo",
"ooooooooOXXoooooooooooooooOXXooooooOOOooooooooooooooooXXXooOOOoo",
"ooooooooooooooooooooooooooooooooooXXOOoooooooooooooooXXXXXOOOooo",
"ooooooooooooooooooooooooooooooooooOOXOooOOooooooooOOoXXXXXOOXXoo",
"ooooooooooooooooooooooooooooooooooOOOooOOXXooooooXXOOoXXXoOXXooo",
"oooooooooooooooooooooooooooooooooXXOOooOXXooooooooXXOooooooooooo",
"ooooooooooooooooooooooooooooooooooXXOooooooooooooooooooooooooooo",
"oooooooooooooooooooooooooooooooooooooooooooooooooooooooooooooooo",
"                                                                ",
"                                                                ",
"                                                                ",
"                                                                ",
"                                                                ",
"                                                                ",
"                                                                ",
"                                                                ",
"                                                                ",
"                                                                ",
"                                                                ",
"                                                                ",
"                                                                ",
"                                                                ",
"                                                                ",
"                                                                ",
"                                                                ",
"                                                                ",
"                                                                ",
"                                                                ",
"                                                                ",
"                                                                ",
"                                                                ",
"                                                                ",
"                                                                ",
"                                                                ",
"                                                                ",
"                                                                ",
"                                                                ",
"                                                                ",
"                                                                ",
"                                                                ",
"                                                                ",
"                                                                ",
"                                                                ",
"                                                                ",
"                                                                ",
"                                                                ",
"                                                                ",
"                                                                ",
"                                                                ",
"                                                                ",
"                                                                ",
"                                                                ",
"                                                                ",
"                                                                ",
"                                                                ",
"                                                                ",
"                                                                ",
"                                                                ",
"                                                                ",
"  ...               ....                                        ",
" .....      ..     ......                                 ....  ",
" .....      ..     ......             ......             ...... ",
"  ...              .....   ...      .........            ...... ",
"      ......        ...   .....    ..........             ..... ",
"    .........             .....   ...........      ....    ...  ",
"   ..........              ...    ...........     .......       ",
"   ..........         ..          ...........     ........      ",
"   ..........         ..          ..........      ........      ",
"   .........                       .......         .......      ",
"    .......                                         .....       ",
"                                                                ",
"                                                                "
};
