/* XPM */
static char *e100bb221c0e46b19fb6b65f66aaea8ezXdOhwpalU5DoE3d[] = {
/* columns rows colors chars-per-pixel */
"18 48 6 1 ",
"  c None",
". c #21110D",
"X c #171C31",
"o c #503625",
"O c #755338",
"+ c #9D7658",
/* pixels */
"                  ",
"     .......      ",
"    .O+++++O.     ",
"   .O++OOO++O.    ",
"   .O++OOO++O.    ",
"   .oO+++++Oo.    ",
"   ..oOOOOOo..    ",
"    .........     ",
"    .ooOoOOo.     ",
"    .oO+++Oo.     ",
"    .o.+++.o.     ",
"   X.o.+++.o.X    ",
"   X.o.+++.o.X    ",
"  XXX..+++..XXX   ",
"    XX.+++.XX     ",
"     X.+++.X      ",
"      .+++.       ",
"     .......      ",
"    .O+++++O.     ",
"   .O++OOO++O.    ",
"   .O++OOO++O.    ",
"   .oO+++++Oo.    ",
"   ..oOOOOOo..    ",
"    .........     ",
"    .ooOoOOo.     ",
"    .oO+++Oo.     ",
"    .o.+++.o.     ",
"   X.o.+++.o.X    ",
"   X.o.+++.o.X    ",
"  XXX..+++..XXX   ",
"    XX.+++.XX     ",
"     X.+++.X      ",
"      .+++.       ",
"     .......      ",
"    .O+++++O.     ",
"   .O++OOO++O.    ",
"   .O++OOO++O.    ",
"   .oO+++++Oo.    ",
"    .oOOOOOo.     ",
"    .........     ",
"    .ooOoOOo.     ",
"    .oOOOoOo.     ",
"    .oOOOoOo.     ",
"   X.oOoOOOo.X    ",
"   X.oo.OOoo.X    ",
"  XXX.o.o.o.XXX   ",
"    XXXXXXXXX     ",
"     X     X      "
};