/* XPM */
static char *_d5efc799e4b44d3caa6331c4169d06cwq82Xz8FOnRVL7EN[] = {
/* columns rows colors chars-per-pixel */
"128 128 6 1 ",
"  c None",
". c black",
"X c #242A3D",
"o c #414B66",
"O c #677598",
"+ c #8F9AB0",
/* pixels */
"                                                                                                                                ",
"                                                                                                                                ",
"                                                                                                                                ",
"                                                                                                                                ",
"                                                                                                                                ",
"                                                                                                                                ",
"                                                                                                                                ",
"                                                                                                                                ",
"                                                                                                                                ",
"  ....  ......    ....  ... .... ...  ..... .... ...  ........           ..............                                         ",
" .OOOo..ooOOOO.  .OOOo..ooo.OOOo.OOo..oOOOo.OOOo.OOo..OOooOOOO.         .OOOOOOoOOOOOOO.                                        ",
".OOOOO.ooOOOOOO..OOOOO.oOOOoOOOOoOOO.oOOOOOoOOOOoOOO.OOOoOOOOOO.       .OOOOOOOOOOOOOOOO.                                       ",
".OOOOOoOOOOOOOO..OOOOOoOOOOOOOOOoOOOoOOOOOOOOOOOoOOOoOOOOOOOOOO.       .OOOOOOOOOOOOOOOO.                                       ",
".oOOOOXOOOOOOOO..oOOOOXOOOOO+OOOXoOOXOOOOOOO+OOOXoOOXOOoOOOOOOO.       .OOOOOOOOOOOOOOOO.                                       ",
".OOOOOoOO++++OO..OOOOOoOO++Oo++oOOOooOO++++Oo++oOOOOOooOO++++OO.       .+OOOOOOOOOOOOOOO.                                       ",
".+++OOoO+OOOO+O..+++OOoO+OO+Xoo++OOOoO+OOOO+Xoo++++++OoO+OOOO+O.       .o++OOOOOoOOOOOOO.                                       ",
".oOOOOOXXOOOOOo..oOOOOOX.                              .XOOOOOo.       .XOOOOOo..oOOOOOX.                                       ",
".OOOOOOOOOOOOOO..OOOOOOO.                              .OOOOOOO.       .OOOOOOO..OOOOOOO.                                       ",
".+OOOOOO+OOOOOO..+OOOOOO.                              .+OOOOOO.       .+OOOOOO..+OOOOOO.                                       ",
".+OOOOOO+OOOOOO..+OOOOOO.                              .+OOOOOO.       .+OOOOOO..+OOOOOO.                                       ",
".++OOOOO++OOOOO..++OOOOO.                              .++OOOOO.       .++OOOOO..++OOOOO.                                       ",
".o+++OOoo++++Oo..o+++OOo.                              .o++++Oo.       .o++++Oo..o+++OOo.                                       ",
".OooooXXXXooooO..OooooXX.                              .XXooooO.       .XXooooO..OooooXX.                                       ",
".OooOOOXXOOOooO..OooOOOX.                              .XOOOooO.       .XOOOooO..OooOOOX.                                       ",
".oOOOOOOOOOOOOo..oOOOOOO.                              .OOOOOOo.       .OOOOOOo..oOOOOOO.                                       ",
".OOOOOOOOOOOOOO..OOOOOOO.                              .OOOOOOO.       .OOOOOOO.oOOOOOOO.                                       ",
".OOOOOOOOOOOOOO..OOOOOOO.                              .OOOOOOO.       .OOOOOOOXOOOOOOOO.                                       ",
".+OOOOOOOOOOOOO..+OOOOOO.                              .OOOOOOO.       .OOOOOOOXO+OOOOOO.                                       ",
".+OOOOOO+OOOOOO..+OOOOOO.                              .+OOOOOO.       .+OOOOOOXO+OOOOOO.                                       ",
".++OOOOO++OOOOO..++OOOOO.                              .++OOOOO.       .++OOOOOXo++OOOOO.                                       ",
".o++++OOO+++OOo..o++++OO.                              .O+++OOo.       .O+++OOoXXo++++OO.                                       ",
".XooOoXXXXoOooX..XooOoXX.                              .XXoOooX.       .XXoOooXoXXooOoXX.                                       ",
".OoOOOOoXOOOOOo..OoOOOOo.                              .XOOOOOo.                                                                ",
".oOOOOOOOOOOOOO..oOOOOOO.                              .OOOOOOO.                                                                ",
".OOOOOOOOOOOOOO..OOOOOOO.                              .OOOOOOO.                                                                ",
".OOOOOOOOOOOOOO..OOOOOOO.                              .OOOOOOO.                                                                ",
".OOOOOOOOOOOOOO..OOOOOOO.                              .OOOOOOO.                                                                ",
".OOOOOOoOOOOOOO..OOOOOOo.                              .OOOOOOO.                                                                ",
".OOOOOoO+OOOOOO..OOOOOoOO.                             .+OOOOOO.                                                                ",
".+OOOOOO++OOOOO..+OOOOOOO.                             .++OOOOO.                                                                ",
".o++OoOOo++++Oo..o++OoOOOO.                            .o++++Oo.                                                                ",
".XXoooOOXXooooX..XXoooOOOO. .... ...  ..... .... ...  ..XXooooX.                                                                ",
".oOOOooOooOOOOo..oOOOooOOoo.OOOo.OOo..oOOOo.OOOo.OOo..OOooOOOOo.                                                                ",
".OOOOOoooOOOOOO..OOOOOooOOOoOOOOoOOO.oOOOOOoOOOOoOOO.OOOoOOOOOO.                                                                ",
".OOOOOoOOOOOOOO..OOOOOoOOOOOOOOOoOOOoOOOOOOOOOOOoOOOoOOOOOOOOOO.                                                                ",
".oOOOOXOOOOOOOO..oOOOOXOOOOO+OOOXoOOXOOOOOOO+OOOXoOOXOOoOOOOOOO.                                                                ",
".OOOOOoOO++++OO..OOOOOoOO++Oo++oOOOooOO++++Oo++oOOOOOooOO++++OO.                                                                ",
".+++OOoO+OOOO+O..+++OOoO+OO+Xoo++OOOoO+OOOO+Xoo+++++OOoO+OOOO+O.                                                                ",
"                                                                                                                                ",
"                                                                                                                                ",
"                                                                                                                                ",
"                                                                                                                                ",
"                                                                                                                                ",
"                                                                                                                                ",
"                                                                                                                                ",
"                                                                                                                                ",
"                                                                                                                                ",
"  ....  ......    ....  ... .... ...  ..... .... ...  ........                                                                  ",
" .OOOo..ooOOOO.  .OOOo..ooo.OOOo.OOo..oOOOo.OOOo.OOo..OOooOOOO.                                                                 ",
".OOOOO.ooOOOOOO..OOOOO.oOOOoOOOOoOOO.oOOOOOoOOOOoOOO.OOOoOOOOOO.                                                                ",
".OOOOOoOOOOOOOO..OOOOOoOOOOOOOOOoOOOoOOOOOOOOOOOoOOOoOOOOOOOOOO.                                                                ",
".oOOOOXOOOOOOOO..oOOOOXOOOOO+OOOXoOOXOOOOOOO+OOOXoOOXOOoOOOOOOO.                                                                ",
".OOOOOoOO++++OO..OOOOOoOO++Oo++oOOOooOO++++Oo++oOOOOOooOO++++OO.                                                                ",
".+++OOoO+OOOO+O..+++OOoO+OO+Xoo++OOOoO+OOOO+Xoo++++++OoO+OOOO+O.                                                                ",
".OOOOXXoOOOOOOX..OOOOXXoOOOOXXXOOOOXXoOOOOOOXXXOOOOOOXXoOOOOOOX.       .OOOOXXXOOOOXXoOO.                                       ",
".OooooXOOOOoooO..OooooXOOOooOXOOOoooXOOOOoooOXOOOOOoooXOOOOoooO.       .OoooOXOOOoooXOOO.                                       ",
".oooooXOoOooooo..oooooXOoooooXOOooooXOoooooooXOOOoooooXOOOooooo.       .oooooXOOooooXOoo.                                       ",
".oooooXoOoooooo..oooooXoOooooXooOoooXoOooooooXooooOoooXoOoooooo.       .oooooXooOoooXoOo.                                       ",
".ooooXXXoooooo...ooooXXXooooXXXooooXXXooooooXXXooooooXXXoooooo..       .ooooXXXooooXXXoo.                                       ",
"..XXXXXXXXOOOO....XXXXXXXOOOoXXXXXXXXXXXOOOOoXXXXXXXXXXXXXOOOO..       .OOOOoXXXXXXXXXXX.                                       ",
"..OOOXXXOOOooOO...OOOXXXOOooOXoOOOOOXXXOOOooOXoOOOOOOOXXXOOooOO.       .OOooOXoOOOOOXXXO.                                       ",
".OOOOOXOooooooO..OOOOOXOooOoooOOOOOOOXOoooOoooOOOOOOOOOXOoooooO.       .ooOoooOOOOOOOXOo.                                       ",
".OoooOXoooooooo..OoooOXooooooOOOooooOXoooooooOOOooooooOXooooooo.       .oooooOOOooooOXoo.                                       ",
".oooooXoooooooo..oooooXoooooXOoooooooXooooooXOoooooooooXooooooo.       .ooooXOoooooooXoo.                                       ",
".ooooXXXXooooo...ooooXXXXXXXXXooooooXXXXXXXXXXooooooooXXXooooo..       .XXXXXXooooooXXXX.                                       ",
"..OOOOOOOXXoOOO...OOOOOOOXXoOOOOoXXOOOOOOXXoOOOOoXXOOOOOOXXoOOO.       .OXXoOOOOoXXOOOOO.                                       ",
".OOOooooOOXOOOo..OOOooooOOXOOOooOXOOOoooOOXOOOooOXOOOoooOOXOOOo.       .OOXOOOooOXOOOooo.                                       ",
".OoooooOooXOooo..OoooooOooXOoooooXOooooOooXOoooooXOooooOooXOooo.       .ooXOoooooXOooooO.                                       ",
".oooooooooXXooo..oooooooooXXooooXXooooooooXXooooXXooooooooXXooo.       .ooXXooooXXoooooo.                                       ",
"..oooooooXXXXX....oooooooXXXXXXXXXXooooooXXXXXXXXXXooooooXXXXX..       .oXXXXXXXXXXooooo.                                       ",
".OOOOXXoOOOOOOX..OOOOXXoOOOOXXXOOOOXXoOOOOOOXXXOOOOOOXXoOOOOOOX.       .OOOOXXXOOOOXXoOO.                                       ",
".OooooXOOOOoooO..OooooXOOOooOXOOOoooXOOOOoooOXOOOOOoooXOOOOoooO.       .OoooOXOOOoooXOOO.                                       ",
".oooooXOOOooooo..oooooXOoooooXOOooooXOoooooooXOOOoooooXOOOooooo.       .oooooXOOooooXOoo.                                       ",
".oooooXoOoooooo..oooooXoOooooXooOoooXoOooooooXooooOoooXoOoooooo.       .oooooXooOoooXoOo.                                       ",
".ooooXXXoooooo...ooooXXXooooXXXooooXXXooooooXXXooooooXXXoooooo..       .XoooXXXooooXXXoo.                                       ",
"..XXXXXXXXOOOO....XXXXXXXOOOoXXXXXXXXXXXOOOOoXXXXXXXXXXXXXOOOO..       .OOOOoXXXXXXXXXXX.                                       ",
"..OOOXXXXOOooOO...OOOXXXOOooOXoOOOOOXXXOOOooOXoOOOOOOOXXXOOooOO.       .OOooOXoOOOOXXoOO.                                       ",
".OOOOOXOOoooooO..OOOOOXOooOoooOOOOOOOXOoooooooOOOOOOOOOXOoooooO.       .ooooooOOOOOOXOOo.                                       ",
".OoooOXoooooooo..OoooOXooooooOOOooooOXoooooooOOOooooooOXooooooo.       .oooooOOOooooXOoo.                                       ",
".oooooXoooooooo..oooooXoooooXOoooooooXooooooXOoooooooooXooooooo.       .ooooXOooooooXooo.                                       ",
".ooooXXXXooooo...ooooXXXXXXXXXooooooXXXXXXXXXXooooooooXXXooooo..       ..XXXXXooooooXXXX.                                       ",
"..OOOOOOOXXoOOO...OOOOOOOXXoOOOOoXXOOOOOOXXoOOOOoXXOOOOOOXXoOOO.       .OOXoOOOOoXXOOOOO.                                       ",
".OOOooooOOXOOOo..OOOooooOOXOOOooOXOOOoooOOXOOOooOXOOOoooOOXOOOo.       .OOoOOOooOXOOOOoo.                                       ",
".OoooooOooXOooo..OoooooOooXOoooooXOooooOooXOoooooXOooooOooXOooo.       .OooOoooooXOoooOo.                                       ",
".oooooooooXXooo..oooooooooXXooooXXooooooooXXooooXXooooooooXXooo.       .oooXooooXXoooooo.                                       ",
" ..............  ..............................................         ................                                        ",
"                                                                                                                                ",
"                                                                                                                                ",
"                                                                                                                                ",
"                                                                                                                                ",
"                                                                                                                                ",
"                                                                                                                                ",
"                                                                                                                                ",
"                                                                                                                                ",
"                                                                                                                                ",
"                                                                                                                                ",
"                                                                                                                                ",
"                                                                                                                                ",
"                                                                                                                                ",
"                                                                                                                                ",
"                                                                                                                                ",
"                                                                                                                                ",
"                                                                                                                                ",
"                                                                                                                                ",
"                                                                                                                                ",
"                                                                                                                                ",
"                                                                                                                                ",
"                                                                                                                                ",
"                                                                                                                                ",
"                                                                                                                                ",
"                                                                                                                                ",
"                                                                                                                                ",
"                                                                                                                                ",
"                                                                                                                                ",
"                                                                                                                                ",
"                                                                                                                                ",
"                                                                                                                                ",
"                                                                                                                                "
};
