/* XPM */
static char *_6a8c5db8ce34923e3f1bc1bb2ebf6b9cfJXwzxOidto3iwF[] = {
/* columns rows colors chars-per-pixel */
"96 32 11 1 ",
"  c None",
". c #163C2B",
"X c #1D235D",
"o c #296640",
"O c #69B57F",
"+ c #33418A",
"@ c #425B9E",
"# c #CE5082",
"$ c #D07C86",
"% c #4D8AB3",
"& c #D9929A",
/* pixels */
"                                                                                                ",
"                                                                                                ",
"                                                                                                ",
"                                                                                                ",
"                                                                                                ",
"                                                                                                ",
"                                                                                                ",
"                                                                                                ",
"                                                                     XXXXX                      ",
"                                                                    X%%%%%X                     ",
"                                                      XXXX         X%%%%%@X                     ",
"                                                     X%%%%X        X@%%%@@X+                    ",
"                                                    X%%%%%%X       +X@@@@XX+                    ",
"                                                   +X@%%%@@X+       ++++X%%X+                   ",
"                                                    ++++++++           +X@@X+                   ",
"                                                                        ++++                    ",
"                                                                                                ",
"                                                                                                ",
"                                                                                                ",
"   ....                                                                                         ",
"  .OOOO.                                                                                        ",
" .OOOO.O.                                                                                 ...   ",
" .OOOoOO.@                                                                               .OOO.  ",
" @.OOO##.@                                                                              .O.oOO. ",
"  @..##$##                                                                              .OOOOO. ",
"   @@#$&&#@                                                                             @.OOO.@ ",
"     @#&$#@                                                                              @...@  ",
"      @##@@                                                                               @@@   ",
"       @@@                                                                                      ",
"                                                                                                ",
"                                                                                                ",
"                                                                                                "
};
