/* XPM */
static char *result[] = {
/* columns rows colors chars-per-pixel */
"64 16 10 1 ",
"  c #21110D",
". c #342319",
"X c #171C31",
"o c #242A3D",
"O c #503625",
"+ c #755338",
"@ c #414B66",
"# c #677598",
"$ c #B6BEC8",
"% c None",
/* pixels */
"%%%%%%%%%%%%%%%%%%%%%%%%%%%%%%%%%%%%%%%%%%%%%%%%%%%%%%%%%%%%%%%%",
"%%            %%%%%%%%%%%%%%%%%%%%%%%%%%%%%%%%%%%%%%%%%%%%%%%%%%",
"% O##OOOOOO##O %%%%%%%%%%%%%%%%%%%%          %%%%%%%%%%%%%%%%%%%",
"% +$$++++++$$+ %%              %%% $$++++++$$ %%%%%          %%%",
"% +$$++++++$$+ % OO##OOOOOO##OO % +          + %%% $$++++++$$ %%",
"% +$$++++++$$+ % ++$$++++++$$++ % +          + %% +          + %",
"% +$$++++++$$+ % ++$$++++++$$++ % +          + %% +          + %",
"% O##OOOOOO##O % O+$$++++++$$+O % O$$++++++$$O %% +          + %",
"% ####$$$$#### % OO##OOOOOO##OO % .##O#oo#O##. %% O$$++++++$$O %",
"% .@@.@oo@.@@. % @####$$$$####@ % .##O#oo#O##. %% .##O#oo#O##. %",
"X .##O#oo#O##. XX .@@.@oo@.@@. XX .##O#oo#O##. XX .##O#oo#O##. X",
"X .##O####O##. XX .##O####O##. XX .##O####O##. XX .##O####O##. X",
"X .##OOOOOO##. XX .##OOOOOO##. XX .##OOOOOO##. XX .##OOOOOO##. X",
"XX ##OOOOOO## XXXX ##OOOOOO## XXXX ##OOOOOO## XXXX ##OOOOOO## XX",
"%XXXXXXXXXXXXXX%%XXXXXXXXXXXXXX%%XXXXXXXXXXXXXX%%XXXXXXXXXXXXXX%",
"%%%XXXXXXXXXX%%%%%%XXXXXXXXXX%%%%%%XXXXXXXXXX%%%%%%XXXXXXXXXX%%%"
};
