/* XPM */
static char *c2a3fc5f325143ecb0b6f09be3ddf286QoV1VhxAGvsp2rJN[] = {
/* columns rows colors chars-per-pixel */
"96 192 13 1 ",
"  c None",
". c #21110D",
"X c #342319",
"o c #171C31",
"O c #163C2B",
"+ c #503625",
"@ c #114517",
"# c #347B2C",
"$ c #755338",
"% c #296640",
"& c #9D7658",
"* c #53A03B",
"= c #509B66",
/* pixels */
"======================================================%=========&&&&&&&&&&&&&&&&&&&&&&&&&&&&&&&&",
"=======%===============%======%======================%==========&&&&&&&&&&&&&&&&&&&&&&&&&&&&&&&&",
"=======O===%===========O%=====O====%======%===%=====%%=====%====&&&&&&&&&&&&&&&&&&&&&&&&&&&&&&&&",
"==%===%%==O=======%===%%O%===%O%==%O%=====%%==O%==%OO%%===O=====&&&&&&&&&&&&&&&&&&&&&&&&&&&&&&&&",
"===%%%%%%O%========%%%%%OO%%%OOO%%%O%%===%%O%%OO%%OO$O%%%O%=====&&&&&&&&&&&&&&&&&&&&&&&&&&&&&&&&",
"====O%%OOO%=========O%%O+$OOOO$$OOO$O%%%%%OOOO$$OOO$$$OOOO%=====&&&&&&&&&&&&&&&&&&&&&&&&&&&&&&&&",
"====%OO+$O%%==%=====%OO+$&&$$$$$$$$$&OOOOO$$$$&&&&&&&&&$$O%%==%=&&&&&&&&&&&&&&&&&&&&&&&&&&&&&&&&",
"====%O+$&$O%%%======%O+$&&&&&&&&&&&&&&&$$$$$&&&&&&&&&&&&&$O%%%==&&&&&&&&&&&&&&&&&&&&&&&&&&&&&&&&",
"===%%O+&&&$O%======%%O+&&&&&&&&&&&&&&&&&&&&&&&&&&&&&&&&&&&$O%===&&&&&&&&&&&&&&&&&&&&&&&&&&&&&&&&",
"%%%%%O$&&&O%====%%%%%O$&&&&&&&&&&&&&&&&&&&&&&&&&&&&&&&&&&&O%====&&&&&&&&&&&&&&&&&&&&&&&&&&&&&&&&",
"=OO%O$&&&&O%=====OO%O$&&&&&&&&&&&&&&&&&&&&&&&&&&&&&&&&&&&&O%====&&&&&&&&&&&&&&&&&&&&&&&&&&&&&&&&",
"==OO$$&&&&O%%=====OO$$&&&&&&&&&&&&&&&&&&&&&&&&&&&&&&&&&&&&O%%===&&&&&&&&&&&&&$OOOO$&&&&&&&&&&&&&",
"==%O$&&&&&$OO=====%O$&&&&&&&&&&&&&&&&&&&&&&&&&&&&&&&&&&&&&$OO===&&&&&&&&&&&&$O%%%%O$&&&&&&&&&&&&",
"===O$&&&&&$O=======O$&&&&&&&&&&&&&&&&&&&&&&&&&&&&&&&&&&&&&$O====&&&&&&&&&&&$O%====%O&&&&&&&&&&&&",
"===O$&&&&&O========O$&&&&&&&&&&&&&&&&&&&&&&&&&&&&&&&&&&&&&O=====&&&&&&&&&&&O%======O&&&&&&&&&&&&",
"===O$&&&&&O========O$&&&&&&&&&&&&&&&&&&&&&&&&&&&&&&&&&&&&&O=====&&&&&&&&&&$O%======O&&&&&&&&&&&&",
"===O$&&&&&O%%======O$&&&&&&&&&&&&&&&&&&&&&&&&&&&&&&&&&&&&&O%%===&&&&&&&&&&O%=%=====O$&&&&&&&&&&&",
"==%O$&&&&&O%%=====%O$&&&&&&&&&&&&&&&&&&&&&&&&&&&&&&&&&&&&&O%%===&&&&&&&&&&&O%======O$&&&&&&&&&&&",
"=%OO$&&&&&O%%%===%OO$&&&&&&&&&&&&&&&&&&&&&&&&&&&&&&&&&&&&&O%%%==&&&&&&&&&&&$O=====%O$&&&&&&&&&&&",
"==%O$&&&&&&O%%====%O$&&&&&&&&&&&&&&&&&&&&&&&&&&&&&&&&&&&&&&O%%==&&&&&&&&&&&&O%==%%O$$&&&&&&&&&&&",
"===%O&&&&&&O==%====%O&&&&&&&&&&&&&&&&&&&&&&&&&&&&&&&&&&&&&&O==%=&&&&&&&&&&&&&O%%OO$$&&&&&&&&&&&&",
"====O$&&&&&O========O$&&&&&&&&&&&&&&&&&&&&&&&&&&&&&&&&&&&&&O====&&&&&&&&&&&&&&OO$$$&&&&&&&&&&&&&",
"====%O&&&&O%%=======%O&&&&&&&&&&&&&&&&&&&&&&&&&&&&&&&&&&&&O%%===&&&&&&&&&&&&&&&&&&&&&&&&&&&&&&&&",
"====%O&&&&O%========%O&&&&&&&&&&&&&&&&&&&&&&&&&&&&&&&&&&&&O%====&&&&&&&&&&&&&&&&&&&&&&&&&&&&&&&&",
"===%%O&&&&O%=======%%O&&&&&&&&&&&&&&&&&&&&&&&&&&&&&&&&&&&&O%====&&&&&&&&&&&&&&&&&&&&&&&&&&&&&&&&",
"==%OO+&&&&O%======%OO+&&&&&&&&&&&&&&&&&&&&&&&&&&&&&&&&&&&&O%====&&&&&&&&&&&&&&&&&&&&&&&&&&&&&&&&",
"===%O$&&&&+O%======%O$&&&&&&&&&&&&&&&&&&&&&&&&&&&&&&&&&&&&+O%===&&&&&&&&&&&&&&&&&&&&&&&&&&&&&&&&",
"===%O$&&&&$OO%=====%O$&&&&&&&&&&&&&&&&&&&&&&&&&&&&&&&&&&&&$OO%==&&&&&&&&&&&&&&&&&&&&&&&&&&&&&&&&",
"==%%O$&&&&$O%%====%%O$&&&&&&&&&&&&&&&&&&&&&&&&&&&&&&&&&&&&$O%%==&&&&&&&&&&&&&&&&&&&&&&&&&&&&&&&&",
"=%%O$$&&&&$O%====%%O$$&&&&&&&&&&&&&&&&&&&&&&&&&&&&&&&&&&&&$O%===&&&&&&&&&&&&&&&&&&&&&&&&&&&&&&&&",
"==OO$&&&&&O%======OO$&&&&&&&&&&&&&&&&&&&&&&&&&&&&&&&&&&&&&O%====&&&&&&&&&&&&&&&&&&&&&&&&&&&&&&&&",
"===O&&&&&&O%=======O&&&&&&&&&&&&&&&&&&&&&&&&&&&&&&&&&&&&&&O%====&&&&&&&&&&&&&&&&&&&&&&&&&&&&&&&&",
"==%OO&&&&&O%======%OO&&&&&&&&&&&&&&&&&&&&&&&&&&&&&&&&&&&&&O%=======O$&&&&&&&&&&&&&&&&&&&&&O%=%==",
"====%O&&&&O%%=======%O&&&&&&&&&&&&&&&&&&&&&&&&&&&&&&&&&&&&O%%======O$&&&&&&&&&&&&&&&&&&&&&&O%===",
"=====%O&&&$O%========%O&&&&&&&&&&&&&&&&&&&&&&&&&&&&&&&&&&&$O%=====%O$&&&&&&&&&&&&&&&&&&&&&&$O===",
"=====%O&&&&+O%=======%O&&&&&&&&&&&&&&&&&&&&&&&&&&&&&&&&&&&&+O%==%%O$$&&&&&&&&&&&&&&&&&&&&&&&O%==",
"=====%O$&&&$O%=======%O$&&&&&&&&&&&&&&&&&&&&&&&&&&&&&&&&&&&$O%==OO$$&&&&&&&&&&&&&&&&&&&&&&&&&O%%",
"====%%O$&&$O%%%=====%%O$&&&&&&&&&&&&&&&&&&&&&&&&&&&&&&&&&&$O%%%=$$$&&&&&&&&&&&&&&&&&&&&&&&&&&&OO",
"==%%%O+$&&O%%=====%%%O+$&&&&&&&&&&&&&&&&&&&&&&&&&&&&&&&&&&O%%===&&&&&&&&&&&&&&&&&&&&&&&&&&&&&&&&",
"===%O+$$&&O%=======%O+$$&&&&&&&&&&&&&&&&&&&&&&&&&&&&&&&&&&O%====&&&&&&&&&&&&&&&&&&&&&&&&&&&&&&&&",
"==%%%O$$&$O%======%%%O$$&&&&&&&&&&&&&&&&&&&&&&&&&&&&&&&&&$O%====&&&&&&&&&&&&&&&&&&&&&&&&&&&&&&&&",
"=%==%%O$$OO%=====%==%%O$$&&&&&&&&&&&&&&&&&&&&&&&&&&&&&&&$OO%====&&&&&&&&&&&&&&&&&&&&&&&&&&&&&&&&",
"=====%OOO%%%%========%OOOO$&&&&&&&&&&OOOOO&&&&&&&OOOOO&$O%%%%===&&&&&&&&&&&&&&&&&&&&&&&&&&&&&&&&",
"=====%%%%%===%=======%%%%%O$&OOOO&OOO%%%%%O&&OOOO%%%%%OO%%===%==&&&&&&&&&&&&&$OOOO$&&&&&&&&&&&&&",
"=====%==%============%===%%OO%%%%O%%O%===%%OO%%%O%===%%%%=======&&&&&&&&&&&&$O%%%%O$&&&&&&&&&&&&",
"====%===%===========%=====%%%===%O%%%======%O%===%====%=%=======&&&&&&&&&&&$O%====%O&&&&&&&&&&&&",
"=========%================%=======%==%======%=====%======%======&&&&&&&&&&&O%======O&&&&&&&&&&&&",
"================================================================&&&&&&&&&&$O%======O&&&&&&&&&&&&",
"======================================================%=========                                ",
"=======%===============%======%======================%==========                                ",
"=======O===%===========O%=====O====%======%===%=====%%=====%====                                ",
"==%===%%==O=======%===%%O%===%O%==%O%=====%%==O%==%OO%%===O=====                                ",
"===%%%%%%O%========%%%%%OO%%%OOO%%%O%%===%%O%%OO%%OO$O%%%O%=====                                ",
"====O%%OOO%=========O%%O+$OOOO$$OOO$O%%%%%OOOO$$OOO$$$OOOO%=====                                ",
"====%OO+$O%%==%=====%OO+$&&$$$$$$$$$&OOOOO$$$$&&&&&&&&&$$O%%==%=                                ",
"====%O+$&$O%%%======%O+$&&&&&&&&&&&&&&&$$$$$&&&&&&&&&&&&&$O%%%==                                ",
"==%%%O$$&$O%======%%%O$$&&&&&&&&&&&&&&&&&&&&&&&&&&&&&&&&&$O%====                                ",
"=%==%%O$$OO%=====%==%%O$$&&&&&&&&&&&&&&&&&&&&&&&&&&&&&&&$OO%====                                ",
"=====%OOO%%%%========%OOOO$&&&&&&&&&&OOOOO&&&&&&&OOOOO&$O%%%%===                                ",
"=====%%%%%===%=======%%%%%O$&OOOO&OOO%%%%%O&&OOOO%%%%%OO%%===%==                                ",
"=====%==%============%===%%OO%%%%O%%O%===%%OO%%%O%===%%%%=======                                ",
"====%===%===========%=====%%%===%O%%%======%O%===%====%=%=======                                ",
"=========%================%=======%==%======%=====%======%======                                ",
"================================================================                                ",
"                                                                ********************************",
"                                                                ******************#*************",
"                                                 ...            ***************#*##*************",
"                               ...     ...      .###.. ..       ****************#@@#************",
"                         ...  .###...o.###.oo...##***#.##.      *************@#*@++@###*********",
"                        .###..#*###*#..#***..#**#*****#**#.     **************@@$$++@@**********",
"                       .##***#***#***#*#*****#**#********#.     **********#**#@$$$$+@#**********",
"       ....            .#*********************#*********#..     ***********@##@$$$$$@#**********",
"      .#*#..          .#*********************************#..    ************@@$$$$$$@##*********",
"     .@#*#@.         .@##********************************#@.    ************#@$$$$$$+@@*********",
"     .#*##@.o        .#*********************************##@.o   **********@##@$$$$$$$@#@********",
"    .@****#@.       .@************************************#@.   ***********@@$$$$$$$$+@#********",
"   o.#*****#.o     o.#*************************************#.o  ************#@$$$+$$$+@*********",
"   .@#******@.     .@#**************************************@.  ************#@$...$$++@*********",
"  o.+@#****#@.    o.+@#************************************#@.  **********@##@.ooo.+++@#********",
"  o.++@#***#@.o   o.++@#***********************************#@.o **********#@@+.oooo.++@@#*******",
"  o.++@#**#@@.o   o.++@#**********************************#@@.o ***********#@+.o oo.+@#*********",
"  oo.+@###@@.oo   oo.+@##*******************************##@@.oo ***********#@++. oo.+@#*********",
"   o.@@@*#@+.o     o.@@@#********************************#@+.o  **********###@+.oo.+@###********",
"   .+@#***#@+.     .+@#***********************************#@+.  ************##@....@##**********",
"   .@##****#@.     .@##************************************#@.  *************########***********",
"  o.@#*****#@.o   o.@#*************************************#@.o *************#******#***********",
"  o.@#*****#@.o   o.@#*************************************#@.o ********************************",
"  o.@#*****#@.o   o.@#*************************************#@.o ********************************",
"  .+@##***##@+.   .+@##***********************************##@+. ********************************",
"  .++@#####@++.   .++@###*******************************###@++. ********************************",
" o.+$$@#*#@$$+.o o.+$$@#*********************************#@$$+.o********************************",
" o.$$@##**#@$$.o o.$$@##**********************************#@$$.o********************************",
" o.$$@#**##@$$.o o.$$@#**********************************##@$$.o********************************",
" o.$$@#**@@+$$.o o.$$@#**********************************@@+$$.o********************************",
" oo.+@#***#@+.oo oo.+@#***********************************#@+.oo********************************",
" oo.++@@***@@.oo oo.++@@#**********************************@@.oo********************************",
"  o.++@#**#@$+.o  o.++@#*****************************#****#@$+.o oo.+@#********************#@+.o",
"  o.+$@#*##@$$.o  o.+$@##**#******#****#*****#****#**##**##@$$.o oo.+@#***********#********#@++.",
"  o.$$+@##@+$$.o  o.$$+@#**@*****#@#**##****#@***#@*##@###@+$$.ooo.+@###*******#*##*******###@+.",
" oo.$$++@@$++$.o oo.$$++@##@#***#@X@##@@#**#@@#*#@@##@@@@@$++$.o...@##**********#@@#********##@.",
" oo.$$+$$$$$$+.o oo.$$+$+@@+@####@X+@@+$@@##@$@#@@$@@+$$$$$$$+.o#####********@#*@++@###******###",
" oo.$++$$$$$$+.o oo.$++$$$$$+@@@@$++$$$$$+@@$$$@@$$$$$$$$$$$$+.o****#*********@@$$++@@*******#**",
" oo.++$$$+$$$$.o oo.++$$$$$$$$$$$$+$$$$$$$$$$$$$$$$$$$$$$+$$$$.o**********#**#@$$$$+@#**********",
" oo.+$$$$+$$$$.o oo.+$$$$$$$$$$$$$$$$$$$$$$$$$$$$$$$$$$$$+$$$$.o***********@##@$$$$$@#**********",
"  o.+$$$$++$$$.o  o.+$$$$$$$$$$$$$$$$$$$$$$+$$$$$$$$$$$$$++$$$.o************@@$$$$$$@##*********",
"  o.+$$$$$+$$$.   o.+$$$$$$$$$$$$$$$$$$$$$$+$$$$$$$$$$$$$$+$$$. ************#@$$$$$$+@@*********",
"  oo.$$$$$+$$+.   oo.$$$$$$$$$$$$$$$$$$$$$$+$$$$$$$$$$$$$$+$$+. **********@##@$$$$$$$@#@********",
"   o.$$$$$+++.     o.$$$$$$$+$$$$$+$$$$$$$$++$$$$$$+$$$$$$+++.  ***********@@$$$$$$$$+@#********",
"   oo.$$$+++..     oo.$$$$$$+$$$$+.$$$$$$$++.+$$$$$+$$$$$+++..  ************#@$$$+$$$+@*********",
"    oo......        oo..$$$+..$$...+$$$$....o...$$+..$$$....    ************#@$...$$++@*********",
"     oooooo          ooo....oo..ooo.....oooooooo...oo...ooo     **********@##@.ooo.+++@#********",
"       oo              oooooooooooooooooo      oooooooooo       **********#@@+.oooo.++@@********",
"                               ...     ...      ...... ..                                       ",
"                         ...  .###...o.###.oo...##***#.##.                                      ",
"        ..             ..###..#*###*#..#***..#**#*****#**#.                                     ",
"      ..*#.           ..##***#***#***#*#*****#**#********#.                                     ",
"     .$.##..         .$.#*********************#*********#...                                    ",
"    .$$@##@+.       .$$@#**@*****#@#**##****#@***#@*##@###@+.                                   ",
"    .$++@@$+.       .$++@##@#***#@X@##@@#**#@@#*#@@##@@@@@$+.                                   ",
"   .+$+$$+$$$.     .+$+$+@@+@####@X+@@+$@@##@$@#@@$@@+$$$+$$$.                                  ",
"  o.+++$$++$$.    o.+++$$$$$+@@@@$++$$$$$+@@$$$@@$$$$$$$$++$$.                                  ",
"  o.++$$$$+$$.    o.++$$$$$$$$$$$$+$$$$$$$$+$$$$$$$$$$$$$$+$$.                                  ",
"  oo.$$$$$+$$.    oo.$$$$$$$$$$$$$$$$$$$$$$+$$$$$$$$$$$$$$+$$.                                  ",
"   o.$$$$$+++.     o.$$$$$$$+$$$$$+$$$$$$$$++$$$$$$+$$$$$$+++.                                  ",
"   oo.$$$+++.      oo.$$$$$$+$$$$+.$$$$$$$++.+$$$$$+$$$$$+++.                                   ",
"    oo......        oo..$$$+..$$...+$$$$....o...$$+..$$$....                                    ",
"     oooooo          ooo....oo..ooo.....oooooooo...oo...ooo                                     ",
"       oo              oooooooooooooooooo      oooooooooo                                       ",
"                                                                                                ",
"                                                                                                ",
"                                                                                                ",
"                                                                                                ",
"                                                                                                ",
"                                                                                                ",
"                                                                                                ",
"                                                                                                ",
"                                                                                                ",
"                                                                                                ",
"                                                                                                ",
"                                                                                                ",
"                                                                                                ",
"                                                                                                ",
"                                                                                                ",
"                                                                                                ",
"                                                                                                ",
"                                                                                                ",
"                                                                                                ",
"                                                                                                ",
"                                                                                                ",
"                                                                                                ",
"                                                                                                ",
"                                                                                                ",
"                                                                                                ",
"                                                                                                ",
"                                                                                                ",
"                                                                                                ",
"                                                                                                ",
"                                                                                                ",
"                                                                                                ",
"                                                                                                ",
"                                                                                                ",
"                                                                                                ",
"                                                                                                ",
"                                                                                                ",
"                                                                                                ",
"                                                                                                ",
"                                                                                                ",
"                                                                                                ",
"                                                                                                ",
"                                                                                                ",
"                                                                                                ",
"                                                                                                ",
"                                                                                                ",
"                                                                                                ",
"                                                                                                ",
"                                                                                                ",
"                                                                                                ",
"                                                                                                ",
"                                                                                                ",
"                                                                                                ",
"                                                                                                ",
"                                                                                                ",
"                                                                                                ",
"                                                                                                ",
"                                                                                                ",
"                                                                                                ",
"                                                                                                ",
"                                                                                                ",
"                                                                                                ",
"                                                                                                ",
"                                                                                                ",
"                                                                                                "
};
